<?xml version="1.0" encoding="UTF-8"?>
<svg xmlns="http://www.w3.org/2000/svg" xmlns:xlink="http://www.w3.org/1999/xlink" width="854" height="480" viewBox="0 0 854 480">
<defs>
<g>
<g id="glyph-0-0">
<path d="M 3.25 0.109375 C 2.707031 0.109375 2.238281 -0.00390625 1.84375 -0.234375 C 1.457031 -0.460938 1.15625 -0.789062 0.9375 -1.21875 C 0.71875 -1.65625 0.609375 -2.175781 0.609375 -2.78125 C 0.609375 -3.40625 0.707031 -3.921875 0.90625 -4.328125 C 1.101562 -4.742188 1.375 -5.070312 1.71875 -5.3125 C 2.0625 -5.550781 2.441406 -5.71875 2.859375 -5.8125 C 3.273438 -5.90625 3.703125 -5.953125 4.140625 -5.953125 L 6.59375 -5.953125 L 6.59375 -5.03125 L 4.859375 -5.03125 C 4.992188 -4.894531 5.144531 -4.707031 5.3125 -4.46875 C 5.488281 -4.238281 5.632812 -3.972656 5.75 -3.671875 C 5.875 -3.367188 5.9375 -3.050781 5.9375 -2.71875 C 5.9375 -1.800781 5.710938 -1.097656 5.265625 -0.609375 C 4.816406 -0.128906 4.144531 0.109375 3.25 0.109375 Z M 3.359375 -0.46875 C 3.835938 -0.46875 4.207031 -0.640625 4.46875 -0.984375 C 4.726562 -1.335938 4.859375 -1.84375 4.859375 -2.5 C 4.859375 -2.894531 4.816406 -3.257812 4.734375 -3.59375 C 4.660156 -3.925781 4.570312 -4.21875 4.46875 -4.46875 C 4.375 -4.726562 4.273438 -4.914062 4.171875 -5.03125 L 3.953125 -5.03125 C 3.679688 -5.03125 3.40625 -4.992188 3.125 -4.921875 C 2.851562 -4.859375 2.609375 -4.738281 2.390625 -4.5625 C 2.171875 -4.382812 1.992188 -4.144531 1.859375 -3.84375 C 1.722656 -3.539062 1.65625 -3.15625 1.65625 -2.6875 C 1.65625 -2.03125 1.800781 -1.492188 2.09375 -1.078125 C 2.394531 -0.671875 2.816406 -0.46875 3.359375 -0.46875 Z "/>
</g>
<g id="glyph-0-1">
<path d="M 0.0625 0 L 0.0625 -0.46875 L 0.15625 -0.46875 C 0.425781 -0.46875 0.640625 -0.515625 0.796875 -0.609375 C 0.960938 -0.710938 1.148438 -0.898438 1.359375 -1.171875 L 2.765625 -2.984375 L 1.359375 -4.90625 C 1.203125 -5.09375 1.046875 -5.234375 0.890625 -5.328125 C 0.742188 -5.429688 0.582031 -5.484375 0.40625 -5.484375 L 0.265625 -5.484375 L 0.265625 -5.953125 L 3.09375 -5.953125 L 3.09375 -5.484375 L 3.0625 -5.484375 C 2.800781 -5.484375 2.628906 -5.453125 2.546875 -5.390625 C 2.460938 -5.328125 2.421875 -5.253906 2.421875 -5.171875 C 2.421875 -5.097656 2.441406 -5.019531 2.484375 -4.9375 C 2.535156 -4.863281 2.597656 -4.769531 2.671875 -4.65625 L 3.40625 -3.65625 L 3.984375 -4.484375 C 4.066406 -4.609375 4.132812 -4.726562 4.1875 -4.84375 C 4.238281 -4.957031 4.265625 -5.066406 4.265625 -5.171875 C 4.265625 -5.296875 4.207031 -5.378906 4.09375 -5.421875 C 3.976562 -5.460938 3.835938 -5.484375 3.671875 -5.484375 L 3.625 -5.484375 L 3.625 -5.953125 L 6.0625 -5.953125 L 6.0625 -5.484375 L 5.96875 -5.484375 C 5.75 -5.484375 5.5625 -5.441406 5.40625 -5.359375 C 5.25 -5.273438 5.0625 -5.082031 4.84375 -4.78125 L 3.703125 -3.25 L 5.328125 -1.0625 C 5.492188 -0.84375 5.648438 -0.6875 5.796875 -0.59375 C 5.941406 -0.507812 6.082031 -0.46875 6.21875 -0.46875 L 6.359375 -0.46875 L 6.359375 0 L 3.5 0 L 3.5 -0.46875 L 3.5625 -0.46875 C 4 -0.46875 4.21875 -0.585938 4.21875 -0.828125 C 4.21875 -0.910156 4.191406 -1 4.140625 -1.09375 C 4.085938 -1.195312 3.972656 -1.363281 3.796875 -1.59375 L 3.0625 -2.59375 L 2.28125 -1.515625 C 2.207031 -1.421875 2.140625 -1.304688 2.078125 -1.171875 C 2.015625 -1.046875 1.984375 -0.925781 1.984375 -0.8125 C 1.984375 -0.695312 2.035156 -0.609375 2.140625 -0.546875 C 2.242188 -0.492188 2.421875 -0.46875 2.671875 -0.46875 L 2.703125 -0.46875 L 2.703125 0 Z "/>
</g>
<g id="glyph-0-2">
<path d="M -1.625 -6.84375 L -1.625 -7.5 L 1.609375 -7.5 L 1.609375 -6.84375 Z "/>
</g>
<g id="glyph-0-3">
</g>
<g id="glyph-0-4">
<path d="M 0.71875 -4.734375 L 0.71875 -5.390625 L 5.484375 -5.390625 L 5.484375 -4.734375 Z M 0.71875 -2.546875 L 0.71875 -3.203125 L 5.484375 -3.203125 L 5.484375 -2.546875 Z "/>
</g>
<g id="glyph-0-5">
<path d="M 0 1.34375 L 2.5625 -8.4375 L 3.203125 -8.4375 L 0.65625 1.34375 Z "/>
</g>
<g id="glyph-0-6">
<path d="M 0.3125 0 L 0.3125 -0.46875 L 0.40625 -0.46875 C 0.65625 -0.46875 0.867188 -0.515625 1.046875 -0.609375 C 1.222656 -0.703125 1.3125 -0.921875 1.3125 -1.265625 L 1.3125 -4.734375 C 1.3125 -5.054688 1.222656 -5.257812 1.046875 -5.34375 C 0.867188 -5.4375 0.660156 -5.484375 0.421875 -5.484375 L 0.359375 -5.484375 L 0.359375 -5.953125 L 2.171875 -5.953125 L 2.3125 -5.0625 L 2.359375 -5.0625 C 2.585938 -5.46875 2.84375 -5.734375 3.125 -5.859375 C 3.414062 -5.992188 3.738281 -6.0625 4.09375 -6.0625 C 4.6875 -6.0625 5.144531 -5.890625 5.46875 -5.546875 C 5.800781 -5.203125 5.96875 -4.648438 5.96875 -3.890625 L 5.96875 -1.265625 C 5.96875 -0.921875 6.039062 -0.703125 6.1875 -0.609375 C 6.34375 -0.515625 6.546875 -0.46875 6.796875 -0.46875 L 6.859375 -0.46875 L 6.859375 0 L 4.921875 0 L 4.921875 -3.828125 C 4.921875 -4.316406 4.828125 -4.691406 4.640625 -4.953125 C 4.460938 -5.222656 4.148438 -5.359375 3.703125 -5.359375 C 3.367188 -5.359375 3.101562 -5.273438 2.90625 -5.109375 C 2.707031 -4.941406 2.566406 -4.71875 2.484375 -4.4375 C 2.398438 -4.164062 2.359375 -3.875 2.359375 -3.5625 L 2.359375 -1.203125 C 2.359375 -0.878906 2.441406 -0.675781 2.609375 -0.59375 C 2.785156 -0.507812 3 -0.46875 3.25 -0.46875 L 3.296875 -0.46875 L 3.296875 0 Z "/>
</g>
<g id="glyph-1-0">
<path d="M 7.03125 1.578125 L 7.625 1.578125 L 10.96875 -12.34375 L 10.171875 -12.34375 L 7.34375 0.453125 L 5.359375 -5.5 L 3.03125 -5.5 L 3.03125 -4.8125 L 4.8125 -4.8125 Z "/>
</g>
</g>
</defs>
<g fill="rgb(100%, 83.529412%, 30.980392%)" fill-opacity="1">
<use xlink:href="#glyph-0-0" x="30" y="36.114258"/>
</g>
<g fill="rgb(100%, 83.529412%, 30.980392%)" fill-opacity="1">
<use xlink:href="#glyph-0-1" x="37" y="36.114258"/>
<use xlink:href="#glyph-0-2" x="40" y="36.114258"/>
<use xlink:href="#glyph-0-3" x="43" y="36.114258"/>
<use xlink:href="#glyph-0-4" x="46" y="36.114258"/>
<use xlink:href="#glyph-0-3" x="52" y="36.114258"/>
</g>
<g fill="rgb(100%, 83.529412%, 30.980392%)" fill-opacity="1">
<use xlink:href="#glyph-0-0" x="55" y="36.114258"/>
<use xlink:href="#glyph-0-3" x="62" y="36.114258"/>
<use xlink:href="#glyph-0-5" x="65" y="36.114258"/>
<use xlink:href="#glyph-0-3" x="68" y="36.114258"/>
</g>
<g fill="rgb(100%, 83.529412%, 30.980392%)" fill-opacity="1">
<use xlink:href="#glyph-1-0" x="71" y="36.114258"/>
</g>
<g fill="rgb(100%, 83.529412%, 30.980392%)" fill-opacity="1">
<use xlink:href="#glyph-0-6" x="85" y="36.114258"/>
</g>
</svg>
